<?xml version="1.0" encoding="iso-8859-1"?>
<!-- Generator: Adobe Illustrator 19.0.0, SVG Export Plug-In . SVG Version: 6.00 Build 0)  -->
<svg version="1.1" id="Capa_1" xmlns="http://www.w3.org/2000/svg" xmlns:xlink="http://www.w3.org/1999/xlink" x="0px" y="0px"
	 viewBox="0 0 512 512" style="enable-background:new 0 0 512 512;" xml:space="preserve">
<g>
	<g>
		<rect x="271.477" y="30.224" width="15" height="458.73"/>
	</g>
</g>
<g>
	<g>
		<rect x="271" y="497" width="15" height="15"/>
	</g>
</g>
<g>
	<g>
		<polygon points="301,52.5 301,67.5 344.125,67.5 344.125,97.5 301,97.5 301,112.5 359.125,112.5 359.125,52.5 		"/>
	</g>
</g>
<g>
	<g>
		<polygon points="256,67.5 256,52.5 1,52.5 1,112.5 256,112.5 256,97.5 16,97.5 16,67.5 		"/>
	</g>
</g>
<g>
	<g>
		<path d="M91,135v60h148.125v-60H91z M224.125,180H106v-30h118.125V180z"/>
	</g>
</g>
<g>
	<g>
		<polygon points="301,217.5 301,232.5 496,232.5 496,262.5 301,262.5 301,277.5 511,277.5 511,217.5 		"/>
	</g>
</g>
<g>
	<g>
		<polygon points="256,232.5 256,217.5 139.75,217.5 139.75,277.5 256,277.5 256,262.5 154.75,262.5 154.75,232.5 		"/>
	</g>
</g>
<g>
	<g>
		<path d="M306.625,300v60h135v-60H306.625z M426.625,345h-105v-30h105V345z"/>
	</g>
</g>
<g>
	<g>
		<polygon points="301,382.5 301,397.5 368.5,397.5 368.5,427.5 301,427.5 301,442.5 383.5,442.5 383.5,382.5 		"/>
	</g>
</g>
<g>
	<g>
		<polygon points="256,397.5 256,382.5 216.625,382.5 216.625,442.5 256,442.5 256,427.5 231.625,427.5 231.625,397.5 		"/>
	</g>
</g>
<g>
	<g>
		<rect x="270.81" width="15" height="15"/>
	</g>
</g>
<g>
	<g>
		<path d="M1,375v135h195V375H1z M181,495H16V390h165V495z"/>
	</g>
</g>
<g>
	<g>
		<rect x="31" y="405" width="15" height="15"/>
	</g>
</g>
<g>
	<g>
		<rect x="31" y="435" width="15" height="15"/>
	</g>
</g>
<g>
	<g>
		<rect x="31" y="465" width="15" height="15"/>
	</g>
</g>
<g>
	<g>
		<rect x="61" y="405" width="105" height="15"/>
	</g>
</g>
<g>
	<g>
		<rect x="61" y="435" width="75" height="15"/>
	</g>
</g>
<g>
	<g>
		<rect x="61" y="465" width="15" height="15"/>
	</g>
</g>
<g>
	<g>
		<rect x="91" y="465" width="22.5" height="15"/>
	</g>
</g>
<g>
	<g>
		<rect x="128.5" y="465" width="37.5" height="15"/>
	</g>
</g>
<g>
	<g>
		<rect x="151" y="435" width="15" height="15"/>
	</g>
</g>
<g>
</g>
<g>
</g>
<g>
</g>
<g>
</g>
<g>
</g>
<g>
</g>
<g>
</g>
<g>
</g>
<g>
</g>
<g>
</g>
<g>
</g>
<g>
</g>
<g>
</g>
<g>
</g>
<g>
</g>
</svg>
